<?xml version="1.0" encoding="utf-8"?>

<svg width="30px" fill="#e2b714" version="1.1" xmlns="http://www.w3.org/2000/svg" xmlns:xlink="http://www.w3.org/1999/xlink" x="0px" y="0px" viewBox="0 0 1000 1000" enable-background="new 0 0 1000 1000" xml:space="preserve">

<g><path d="M901.8,347.5H519.6c8.5-78.9,52.6-82.7,109.3-90.6c64.2-8.9,144-20,144-165.2h-39.2c0,111-46.2,117.4-110.2,126.3c-58.7,8.1-132.1,16-143.1,129.4h-392C45.2,347.5,10,384.7,10,428V820c0,43.2,35.2,88.3,78.4,88.3h823.2c43.2,0,78.4-45,78.4-88.3V428C990,384.7,945,347.5,901.8,347.5z M696,467.2h78.4v78.4H696V467.2z M715.6,584.8v78.4h-78.4v-78.4H715.6z M578.4,467.2h78.4v78.4h-78.4V467.2z M598,584.8v78.4h-78.4v-78.4H598z M460.8,467.2h78.4v78.4h-78.4V467.2z M480.4,584.8v78.4H402v-78.4H480.4z M343.2,467.2h78.4v78.4h-78.4V467.2z M362.8,584.8v78.4h-78.4v-78.4H362.8z M225.6,467.2H304v78.4h-78.4V467.2z M108,467.2h78.4v78.4H108V467.2z M108,584.8h137.2v78.4H108V584.8z M186.4,780.8H108v-78.4h78.4V780.8z M304,780.8h-78.4v-78.4H304V780.8z M656.8,780.8H343.2v-78.4h313.6V780.8z M774.4,780.8H696v-78.4h78.4V780.8z M892,780.8h-78.4v-78.4H892V780.8z M892,663.2H754.8v-78.4H892V663.2z M892,545.6h-78.4v-78.4H892V545.6z"/></g>
</svg>